<svg width="32" height="32" viewBox="0 0 32 32" fill="none" xmlns="http://www.w3.org/2000/svg">
<path d="M21.25 9H22.7537C22.89 9 23 9.10999 23 9.24639V13.1242C23 13.2606 22.8944 13.3706 22.7581 13.375H21.4963C21.36 13.375 21.25 13.265 21.25 13.1286V11.9941L11.5225 21.25H14.0037C14.14 21.25 14.25 21.36 14.25 21.4964V22.7536C14.25 22.89 14.14 23 14.0037 23H9.24631C9.10996 23 9 22.89 9 22.7536V21.25L20.0264 10.75H18.8713C18.735 10.75 18.625 10.64 18.625 10.5036V9.25079C18.625 9.11439 18.735 9.0044 18.8713 9.0044L21.25 9ZM12.5 10.75L16.6287 10.7456C16.765 10.7456 16.875 10.6356 16.875 10.4992V9.24639C16.875 9.10999 16.765 9 16.6331 9H9.25511C9.11876 9 9.0088 9.10999 9.0088 9.24639V13.1286C9.0088 13.265 9.11876 13.375 9.25511 13.375H10.5081C10.6444 13.375 10.75 13.265 10.75 13.1286V10.75H12.5ZM21.25 21.25H16.2463C16.11 21.25 16 21.36 16 21.4964V22.7536C16 22.89 16.11 23 16.2463 23H22.7537C22.89 23 23 22.89 23 22.7536V18.8509C23 18.7145 22.89 18.6045 22.7537 18.6045H21.4963C21.36 18.6045 21.25 18.7145 21.25 18.8509V21.25Z" fill="#285E87"/>
</svg>
